<svg width="24" height="24" viewBox="0 0 24 24" fill="none" xmlns="http://www.w3.org/2000/svg">
  <path d="M12 3c-1.5 0-2.8.8-3.5 2-.5-.3-1-.4-1.5-.4-1.9 0-3.5 1.6-3.5 3.5 0 .5.1 1 .3 1.4-.8.6-1.3 1.6-1.3 2.6 0 1.3.7 2.4 1.8 3-.1.3-.2.6-.2 1 0 1.6 1.3 2.9 2.9 2.9.4 0 .8-.1 1.2-.2.6 1.4 2 2.3 3.6 2.3 1.6 0 3-1 3.6-2.3.4.1.8.2 1.2.2 1.6 0 2.9-1.3 2.9-2.9 0-.4-.1-.7-.2-1 1.1-.6 1.8-1.7 1.8-3 0-1-.5-2-1.3-2.6.2-.4.3-.9.3-1.4 0-1.9-1.6-3.5-3.5-3.5-.5 0-1 .1-1.5.4-.7-1.2-2-2-3.5-2Z" stroke="currentColor" stroke-width="1.5" stroke-linecap="round" stroke-linejoin="round"/>
  <path d="M12 3v18" stroke="currentColor" stroke-width="1.5" stroke-linecap="round" stroke-linejoin="round"/>
  <path d="M7 8.5h5M7 12h5M7 15.5h5" stroke="currentColor" stroke-width="1.5" stroke-linecap="round" stroke-linejoin="round"/>
  <path d="M17 8.5h-5M17 12h-5M17 15.5h-5" stroke="currentColor" stroke-width="1.5" stroke-linecap="round" stroke-linejoin="round"/>
</svg>
