<svg width="24" height="24" viewBox="0 0 24 24" fill="none" xmlns="http://www.w3.org/2000/svg">
  <path d="M17.98 10.79v-.9c0-3.07-2.64-5.56-5.89-5.56-3.21 0-5.82 2.44-5.89 5.46h-.28C4.29 9.79 2.9 11.18 2.9 12.91c0 1.73 1.39 3.12 3.1 3.12h11.98c1.71 0 3.1-1.4 3.1-3.12a3.08 3.08 0 0 0-3.1-3.12Z" stroke="currentColor" stroke-width="1.5" stroke-miterlimit="10" stroke-linecap="round" stroke-linejoin="round"/>
  <path d="M5.5 16.03v1.92c0 1.11.9 2.01 2.01 2.01h8.98c1.11 0 2.01-.9 2.01-2.01v-1.92" stroke="currentColor" stroke-width="1.5" stroke-miterlimit="10" stroke-linecap="round" stroke-linejoin="round"/>
  <path d="M6 13h12" stroke="currentColor" stroke-width="1.5" stroke-linecap="round"/>
</svg>
